<?xml version="1.0" encoding="UTF-8" standalone="no"?>
<!-- Created with Inkscape (http://www.inkscape.org/) -->

<svg
   width="210mm"
   height="297mm"
   viewBox="0 0 210 297"
   version="1.1"
   id="svg11003"
   inkscape:version="1.1 (c68e22c387, 2021-05-23)"
   sodipodi:docname="ic_launcher.svg"
   xmlns:inkscape="http://www.inkscape.org/namespaces/inkscape"
   xmlns:sodipodi="http://sodipodi.sourceforge.net/DTD/sodipodi-0.dtd"
   xmlns="http://www.w3.org/2000/svg"
   xmlns:svg="http://www.w3.org/2000/svg">
  <sodipodi:namedview
     id="namedview11005"
     pagecolor="#ffffff"
     bordercolor="#666666"
     borderopacity="1.0"
     inkscape:pageshadow="2"
     inkscape:pageopacity="0.0"
     inkscape:pagecheckerboard="0"
     inkscape:document-units="mm"
     showgrid="false"
     inkscape:zoom="0.76791526"
     inkscape:cx="397.17924"
     inkscape:cy="457.7328"
     inkscape:window-width="1920"
     inkscape:window-height="1013"
     inkscape:window-x="-9"
     inkscape:window-y="-9"
     inkscape:window-maximized="1"
     inkscape:current-layer="layer1" />
  <defs
     id="defs11000" />
  <g
     inkscape:label="Livello 1"
     inkscape:groupmode="layer"
     id="layer1">
    <g
       id="g10950"
       transform="matrix(1.3370719,0,0,1.3370719,-38.716189,-92.549311)">
      <path
         style="fill:#ffffff;fill-rule:evenodd;stroke:none;stroke-width:0.264583px;stroke-linecap:butt;stroke-linejoin:miter;stroke-opacity:1"
         d="m 151.3731,161.35508 -16.62282,-9.04472 -35.113057,-0.26351 0.539317,6.5336 -23.267305,-0.73632 -4.479717,13.63678 4.565387,4.6424 3.471747,7.67683 h 11.067544 l -2.305737,5.33613 3.952687,3.6233 41.042114,-0.65878 17.06245,-5.07262 z"
         id="path10933"
         inkscape:export-filename="C:\Users\butti\AndroidStudioProjects\TrovaLaSonda\ic_launcher_round.png"
         inkscape:export-xdpi="200.036"
         inkscape:export-ydpi="200.036" />
      <g
         id="g399"
         transform="matrix(0,-0.89504397,0.89504397,0,66.433449,216.6688)"
         inkscape:export-filename="C:\Users\butti\AndroidStudioProjects\TrovaLaSonda\ic_launcher_round.png"
         inkscape:export-xdpi="200.036"
         inkscape:export-ydpi="200.036"
         style="stroke:#000000">
        <path
           d="M 74.4,50.9 74,36.4 c 0,-0.8 -0.7,-1.5 -1.5,-1.5 -1.8,0 -3.3,0.3 -4.5,0.7 v -21 C 68,11.1 65.1,8.2 61.6,8.2 60.2,8.2 58.9,8.6 57.9,9.4 56.9,6.9 54.5,5 51.7,5 48.2,5 45.3,7.9 45.3,11.4 v 0.4 c -1,-0.6 -2.2,-1 -3.4,-1 -3.5,0 -6.4,2.9 -6.4,6.4 v 7.7 c -1,-0.6 -2.2,-1 -3.4,-1 -3.5,0 -6.4,2.9 -6.4,6.4 v 33 c 0,0.1 0,0.2 0,0.3 v 0.9 c 0,12.9 2.2,18.5 3.8,22.5 0.9,2.3 1.6,4 1.6,6.4 0,0.8 0.7,1.5 1.5,1.5 0.8,0 1.5,-0.7 1.5,-1.5 0,-3 -0.8,-5.1 -1.8,-7.5 -1.5,-3.8 -3.6,-9.1 -3.6,-21.4 v -1.2 c 0,-0.1 0,-0.2 0,-0.3 V 30.4 c 0,-1.9 1.5,-3.4 3.4,-3.4 1.9,0 3.4,1.5 3.4,3.4 v 2.2 20 c 0,0.8 0.7,1.5 1.5,1.5 0.8,0 1.5,-0.7 1.5,-1.5 v -20 -2.2 -13.2 c 0,-1.9 1.5,-3.4 3.4,-3.4 1.9,0 3.4,1.5 3.4,3.4 v 9.5 25.8 c 0,0.8 0.7,1.5 1.5,1.5 0.8,0 1.5,-0.7 1.5,-1.5 V 26.7 17.2 11.4 c 0,-1.9 1.5,-3.4 3.4,-3.4 1.9,0 3.4,1.5 3.4,3.4 v 3.3 12 25.6 c 0,0.8 0.7,1.5 1.5,1.5 0.8,0 1.5,-0.7 1.5,-1.5 v -25.6 -12 c 0,-1.9 1.5,-3.4 3.4,-3.4 1.9,0 3.4,1.5 3.4,3.4 v 23 c -2.6,2.8 -3.1,7.4 -3.1,12.3 v 12.6 c -7.1,1.3 -10.1,12 -10.2,12.4 -0.2,0.8 0.2,1.6 1,1.8 0.8,0.2 1.6,-0.2 1.8,-1 0.8,-2.9 3.9,-10.4 8.8,-10.4 0.8,0 1.5,-0.7 1.5,-1.5 v -14 c 0,-9.1 2.2,-11.5 6.2,-11.9 l 0.4,12.9 v 13.7 c 0,13 -3.8,17.9 -6.8,21.8 -1.6,2.1 -3.1,4 -3.8,6.7 -0.2,0.8 0.3,1.6 1.1,1.8 0.1,0 0.2,0 0.4,0 0.7,0 1.3,-0.5 1.5,-1.1 0.5,-2.1 1.7,-3.6 3.2,-5.6 3.3,-4.3 7.4,-9.7 7.4,-23.7 z"
           id="path397"
           style="stroke:#000000" />
      </g>
      <g
         id="g24"
         transform="matrix(0.89504397,0,0,0.89504397,55.223281,96.037341)"
         style="fill:#000000"
         inkscape:export-filename="C:\Users\butti\AndroidStudioProjects\TrovaLaSonda\ic_launcher_round.png"
         inkscape:export-xdpi="200.036"
         inkscape:export-ydpi="200.036">
        <path
           d="M 64.622286,72.682861 54.883,83.432 58.949631,69.994623 54.608838,69.29891 49.992,84.555 38.857,47.76 c 0.158,-6.007 5.09,-10.845 11.135,-10.845 6.044,0 10.977,4.838 11.135,10.845 L 56.861587,61.854824 61.283939,62.281362 65.389,48.717 c 0.003,-0.009 0.006,-0.019 0.009,-0.029 v 0 c 0,0 0.001,0 0.001,-0.001 0.021,-0.068 0.037,-0.138 0.052,-0.208 0.005,-0.026 0.007,-0.052 0.012,-0.079 0.007,-0.044 0.015,-0.087 0.019,-0.132 0.005,-0.053 0.007,-0.104 0.008,-0.156 0.001,-0.019 0.003,-0.036 0.003,-0.055 0,-6.144 4.999,-11.143 11.144,-11.143 5.844,0 10.648,4.523 11.104,10.253 l -4.10725,4.533125 -4.10725,4.533125 -4.10725,4.533125 5.659232,0.240259 L 91.177,49.86 c 0.54,-0.366 0.904,-0.97 0.949,-1.66 C 92.14,48.101 92.149,48 92.149,47.896 92.149,24.655 73.241,5.747 50.001,5.747 H 50 v 0 0 c -23.241,0 -42.149,18.909 -42.149,42.149 0,0.018 0.003,0.036 0.003,0.054 0,0.036 -0.003,0.071 -0.003,0.107 0,0.643 0.28,1.219 0.724,1.618 0.002,0.002 0.003,0.004 0.005,0.006 l 39.8,43.855 c 0.43,0.475 1.021,0.715 1.614,0.715 0.521,0 1.046,-0.186 1.463,-0.564 0.052,-0.047 0.101,-0.096 0.146,-0.146 10e-4,-0.002 0.003,-0.002 0.004,-0.004 l 0.005,-0.006 c 10e-4,-0.002 0.002,-0.002 0.004,-0.004 L 70.412719,72.779386 Z M 34.492,48.043 c 0,0.005 0.001,0.01 0.001,0.015 0,0.01 10e-4,0.02 10e-4,0.029 10e-4,0.061 0.004,0.122 0.01,0.184 0.004,0.036 0.01,0.071 0.016,0.107 0.005,0.035 0.009,0.069 0.016,0.104 0.012,0.062 0.027,0.122 0.045,0.182 0.003,0.008 0.004,0.017 0.007,0.025 l 10e-4,0.005 0.006,0.021 L 45.108,83.45 12.24,47.234 c 0.424,-5.76 5.243,-10.319 11.109,-10.319 6.139,0 11.133,4.989 11.143,11.125 z"
           id="path9"
           style="fill:#000000;stroke:none"
           sodipodi:nodetypes="ccccccsccccsccccccsscccccccssccsssscccssccccccssccccccccccsss" />
      </g>
    </g>
  </g>
</svg>
