<?xml version="1.0" encoding="UTF-8" standalone="no"?>
<!-- Created with Inkscape (http://www.inkscape.org/) -->

<svg
   width="315mm"
   height="28mm"
   viewBox="0 0 315 28"
   version="1.1"
   id="svg5"
   inkscape:version="1.4 (86a8ad7, 2024-10-11)"
   sodipodi:docname="s-meter.svg"
   xmlns:inkscape="http://www.inkscape.org/namespaces/inkscape"
   xmlns:sodipodi="http://sodipodi.sourceforge.net/DTD/sodipodi-0.dtd"
   xmlns="http://www.w3.org/2000/svg"
   xmlns:svg="http://www.w3.org/2000/svg">
  <sodipodi:namedview
     id="namedview7"
     pagecolor="#ffffff"
     bordercolor="#666666"
     borderopacity="1.0"
     inkscape:pageshadow="2"
     inkscape:pageopacity="0.0"
     inkscape:pagecheckerboard="0"
     inkscape:document-units="mm"
     showgrid="false"
     inkscape:zoom="0.93511582"
     inkscape:cx="582.28081"
     inkscape:cy="336.85667"
     inkscape:window-width="1920"
     inkscape:window-height="1013"
     inkscape:window-x="-9"
     inkscape:window-y="1341"
     inkscape:window-maximized="1"
     inkscape:current-layer="layer1"
     inkscape:showpageshadow="2"
     inkscape:deskcolor="#d1d1d1" />
  <defs
     id="defs2" />
  <g
     inkscape:label="Livello 1"
     inkscape:groupmode="layer"
     id="layer1">
    <path
       id="rect1477"
       style="fill:#ff0000;fill-rule:evenodd;stroke-width:0.976988;stop-color:#000000"
       d="m 213.93898,24.659437 h 100.8499 v 2.298112 h -100.8499 z" />
    <path
       id="rect1559"
       style="fill:#00ff00;fill-rule:evenodd;stroke-width:1.42648;stop-color:#000000"
       d="M 11.393528,24.659437 H 226.38838 v 2.298112 H 11.393528 Z" />
    <g
       id="g9831"
       inkscape:export-filename="C:\Users\butti\g7272.png"
       inkscape:export-xdpi="200.036"
       inkscape:export-ydpi="200.036"
       transform="translate(-16.370815,-175.43939)"
       style="fill:none;fill-opacity:1;stroke:#cccccc">
      <path
         d="m 31.214349,193.04721 q 0,2.14489 -1.557869,3.34152 -1.557868,1.19662 -4.19947,1.19662 -1.354669,0 -2.506136,-0.2032 -1.151468,-0.2032 -1.919113,-0.56444 v -1.94169 q 0.8128,0.36124 2.009424,0.65475 1.219201,0.29351 2.506136,0.29351 1.783646,0 2.709336,-0.69991 0.92569,-0.69991 0.92569,-1.89653 0,-0.79023 -0.338667,-1.33209 -0.338667,-0.54187 -1.174046,-0.99343 -0.835379,-0.45155 -2.280358,-0.99342 -2.077158,-0.74507 -3.115736,-1.8288 -1.038579,-1.08374 -1.038579,-2.95769 0,-1.26436 0.654756,-2.19005 0.654756,-0.92569 1.806224,-1.4224 1.151468,-0.49671 2.686758,-0.49671 1.309513,0 2.415825,0.24835 1.106312,0.24836 2.032002,0.65476 l -0.632178,1.73849 q -0.835379,-0.36125 -1.828802,-0.6096 -0.993423,-0.24836 -2.032002,-0.24836 -1.512713,0 -2.280358,0.65476 -0.767645,0.63218 -0.767645,1.69333 0,0.8128 0.338667,1.35467 0.338667,0.54187 1.106312,0.99342 0.767645,0.42898 2.077158,0.90312 1.422401,0.51929 2.393246,1.12889 0.993424,0.58702 1.490135,1.4224 0.51929,0.83538 0.51929,2.09973 z"
         id="text2642"
         style="font-size:22.5778px;line-height:125%;letter-spacing:0px;word-spacing:0px;fill:#cccccc;stroke-width:0.264583px;stroke:#cccccc"
         aria-label="S" />
      <path
         id="rect3920"
         style="fill-rule:evenodd;stroke-width:2;stop-color:#000000;stroke:#cccccc"
         d="m 21.144883,176.88609 h 10.975609 c 1.996821,0 3.604369,1.60755 3.604369,3.60437 v 17.30097 c 0,1.99682 -1.607548,3.60437 -3.604369,3.60437 H 21.144883 c -1.99682,0 -3.604369,-1.60755 -3.604369,-3.60437 v -17.30097 c 0,-1.99682 1.607549,-3.60437 3.604369,-3.60437 z" />
    </g>
    <path
       d="M 34.94408,21.664778 H 33.002389 V 10.398455 q 0,-0.9708444 0.02258,-1.5578671 0.02258,-0.5870227 0.06773,-1.2192004 -0.361245,0.3612447 -0.677334,0.6095997 -0.293512,0.2483557 -0.72249,0.6321787 L 29.976962,10.262988 28.938383,8.9308989 33.295899,5.5442307 h 1.648179 z"
       id="text5192"
       style="font-size:22.5778px;line-height:125%;letter-spacing:0px;word-spacing:0px;fill:#cccccc;stroke-width:0.264583px"
       aria-label="1" />
    <path
       d="M 63.218917,21.664778 H 52.562195 v -1.64818 l 4.222049,-4.267204 q 1.196623,-1.219201 2.032002,-2.167469 0.857956,-0.948268 1.286934,-1.85138 0.428979,-0.903112 0.428979,-2.0094237 0,-1.3320891 -0.790223,-2.0094228 -0.790223,-0.6999117 -2.05458,-0.6999117 -1.196624,0 -2.077158,0.4064007 -0.880534,0.4064 -1.806224,1.1288894 L 52.742817,7.2149868 q 0.948268,-0.7902227 2.167469,-1.3320894 1.241779,-0.5644447 2.77707,-0.5644447 2.25778,0 3.567292,1.1514674 1.309513,1.1514674 1.309513,3.1383122 0,1.2643567 -0.51929,2.3706687 -0.519289,1.106312 -1.444979,2.190047 -0.92569,1.083734 -2.167469,2.280358 l -3.364092,3.318937 v 0.09031 h 8.150586 z"
       id="text6794"
       style="font-size:22.5778px;line-height:125%;letter-spacing:0px;word-spacing:0px;fill:#cccccc;stroke-width:0.264583px"
       aria-label="2" />
    <path
       d="m 86.398116,8.9950196 q 0,1.6256004 -0.92569,2.5964464 -0.903112,0.948267 -2.415825,1.264357 v 0.09031 q 1.919113,0.225778 2.867381,1.219201 0.970845,0.993423 0.970845,2.596447 0,1.422402 -0.654756,2.506136 -0.654756,1.083734 -2.032002,1.693335 -1.354668,0.609601 -3.499559,0.609601 -1.264357,0 -2.348092,-0.203201 -1.083734,-0.180622 -2.077157,-0.677334 v -1.851379 q 1.016001,0.519289 2.190047,0.790223 1.174045,0.270933 2.25778,0.270933 2.167468,0 3.115736,-0.835378 0.970846,-0.857957 0.970846,-2.348092 0,-1.512712 -1.196624,-2.167468 Q 82.447,13.871823 80.302109,13.871823 h -1.557868 v -1.693335 h 1.580446 q 1.986847,0 3.002848,-0.835379 1.038578,-0.835379 1.038578,-2.2126244 0,-1.1740444 -0.790223,-1.8062228 -0.790223,-0.6547557 -2.144891,-0.6547557 -1.309512,0 -2.235202,0.3838227 -0.92569,0.3838217 -1.828802,0.9708444 L 76.373572,6.6695061 Q 77.231528,5.9921724 78.495885,5.4954617 79.78282,4.99875 81.408422,4.99875 q 2.528713,0 3.747915,1.1288894 1.241779,1.1288894 1.241779,2.8673802 z"
       id="text7292"
       style="font-size:22.5778px;line-height:125%;letter-spacing:0px;word-spacing:0px;fill:#cccccc;stroke-width:0.264583px"
       aria-label="3" />
    <path
       d="m 111.81663,18.007174 h -2.3481 v 3.657604 h -1.91911 V 18.007174 H 99.827813 V 16.313839 L 107.41395,5.4539197 h 2.05458 V 16.223528 h 2.3481 z m -4.26721,-1.783646 v -5.080005 q 0,-1.1740457 0.0226,-1.9868464 0.0452,-0.8353774 0.0903,-1.5804451 h -0.0903 q -0.18062,0.4289777 -0.45156,0.9256894 -0.27093,0.4967117 -0.51929,0.8353787 l -4.83165,6.8862284 z"
       id="text7421"
       style="font-size:22.5778px;line-height:125%;letter-spacing:0px;word-spacing:0px;fill:#cccccc;stroke-width:0.264583px"
       aria-label="4" />
    <path
       d="m 129.64351,11.455999 q 2.46098,0 3.92854,1.241779 1.49013,1.241779 1.49013,3.499559 0,2.506136 -1.60302,3.951115 -1.58045,1.422402 -4.42525,1.422402 -1.26436,0 -2.34809,-0.225778 -1.08374,-0.225778 -1.82881,-0.654757 v -1.873957 q 0.8128,0.496712 1.96427,0.790223 1.17405,0.270934 2.23521,0.270934 1.78364,0 2.86738,-0.835379 1.10631,-0.857956 1.10631,-2.641603 0,-1.580446 -0.97085,-2.415824 -0.97084,-0.857957 -3.07058,-0.857957 -0.63218,0 -1.44498,0.112889 -0.8128,0.112889 -1.30951,0.225778 l -0.99342,-0.632178 0.6096,-7.608716 h 8.08285 v 1.8062228 h -6.38952 l -0.38382,4.6736032 q 0.38382,-0.06773 1.03858,-0.158045 0.65475,-0.09031 1.44498,-0.09031 z"
       id="text7527"
       style="font-size:22.5778px;line-height:125%;letter-spacing:0px;word-spacing:0px;fill:#cccccc;stroke-width:0.264583px"
       aria-label="5" />
    <path
       d="m 148.53137,14.458846 q 0,-1.73849 0.29351,-3.409248 0.31609,-1.6933344 1.10632,-3.0480018 0.8128,-1.3772441 2.25778,-2.1900448 1.44498,-0.8128004 3.72533,-0.8128004 0.47414,0 1.03858,0.04515 0.58702,0.04516 0.94827,0.158045 v 1.6933338 q -0.4064,-0.1354667 -0.92569,-0.2031997 -0.51929,-0.06773 -1.016,-0.06773 -1.55787,0 -2.59645,0.5192887 -1.03858,0.5192887 -1.64818,1.4224001 -0.58702,0.9031117 -0.85795,2.0771571 -0.27094,1.174046 -0.33867,2.506136 h 0.13547 q 0.51928,-0.790223 1.44497,-1.33209 0.92569,-0.564445 2.37067,-0.564445 2.09974,0 3.38667,1.286934 1.28694,1.264357 1.28694,3.612448 0,2.528714 -1.39983,3.973693 -1.37724,1.44498 -3.72533,1.44498 -1.53529,0 -2.77707,-0.767646 -1.24178,-0.767645 -1.98685,-2.348091 -0.72249,-1.580446 -0.72249,-3.996271 z m 5.46383,5.44125 q 1.4224,0 2.30294,-0.903112 0.88053,-0.925689 0.88053,-2.844803 0,-1.53529 -0.79022,-2.438402 -0.76765,-0.903112 -2.32552,-0.903112 -1.06115,0 -1.85138,0.451556 -0.79022,0.428978 -1.24178,1.12889 -0.42897,0.677334 -0.42897,1.377246 0,0.970845 0.38382,1.941691 0.38382,0.948267 1.15147,1.580446 0.76764,0.6096 1.91911,0.6096 z"
       id="text7633"
       style="font-size:22.5778px;line-height:125%;letter-spacing:0px;word-spacing:0px;fill:#cccccc;stroke-width:0.264583px"
       aria-label="6" />
    <path
       d="m 174.52379,21.664778 6.6153,-14.3143242 h -8.69245 V 5.5442307 h 10.81476 v 1.5352891 l -6.54756,14.5852582 z"
       id="text9835"
       style="font-size:22.5778px;line-height:125%;letter-spacing:0px;word-spacing:0px;fill:#cccccc;stroke-width:0.264583px"
       aria-label="7" />
    <path
       d="m 201.9027,4.998751 q 2.12232,0 3.47698,0.9934224 1.35467,0.9934224 1.35467,2.8673795 0,0.9708444 -0.42898,1.6933341 -0.4064,0.722489 -1.10631,1.286935 -0.69991,0.541867 -1.53529,0.970845 0.99342,0.496712 1.80623,1.083734 0.8128,0.587023 1.28693,1.377246 0.49671,0.790223 0.49671,1.896535 0,2.032003 -1.44498,3.228626 -1.44498,1.174046 -3.83822,1.174046 -2.61903,0 -4.01885,-1.12889 -1.37725,-1.151468 -1.37725,-3.206048 0,-1.083735 0.45156,-1.896535 0.47413,-0.835379 1.24178,-1.422402 0.76764,-0.587023 1.64818,-0.993423 -1.19663,-0.677334 -2.00943,-1.625602 -0.8128,-0.970845 -0.8128,-2.4609791 0,-1.2192004 0.63218,-2.0771568 0.63218,-0.8579557 1.71591,-1.3095114 1.08374,-0.4515557 2.46098,-0.4515557 z m -0.0226,1.6030231 q -1.26435,0 -2.05457,0.6095997 -0.79023,0.5870227 -0.79023,1.7159121 0,0.8353784 0.38382,1.3998231 0.40641,0.564445 1.08374,0.970845 0.67733,0.383823 1.49013,0.745068 1.17405,-0.496712 1.96427,-1.196624 0.8128,-0.699912 0.8128,-1.9191121 0,-1.1288894 -0.79022,-1.7159121 -0.79022,-0.6095997 -2.09974,-0.6095997 z m -3.36409,10.6567199 q 0,1.174045 0.83538,1.964268 0.83538,0.767646 2.57387,0.767646 1.64818,0 2.50614,-0.767646 0.88053,-0.790223 0.88053,-2.032002 0,-1.174045 -0.92569,-1.941691 -0.92569,-0.790223 -2.46098,-1.377245 l -0.36124,-0.135467 q -1.49014,0.654756 -2.28036,1.467557 -0.76765,0.812801 -0.76765,2.05458 z"
       id="text9941"
       style="font-size:22.5778px;line-height:125%;letter-spacing:0px;word-spacing:0px;fill:#cccccc;stroke-width:0.264583px"
       aria-label="8" />
    <path
       d="m 231.33355,12.110755 q 0,1.738491 -0.31609,3.431826 -0.29351,1.670757 -1.10631,3.048003 -0.79023,1.354668 -2.25778,2.167469 -1.44498,0.812801 -3.72534,0.812801 -0.45156,0 -1.06116,-0.06773 -0.6096,-0.04516 -0.97084,-0.158044 v -1.693335 q 0.88053,0.293511 1.98684,0.293511 1.58045,0 2.59645,-0.519289 1.03858,-0.51929 1.64818,-1.399824 0.6096,-0.903112 0.88053,-2.077158 0.27094,-1.196623 0.31609,-2.506136 h -0.13546 q -0.51929,0.767646 -1.44498,1.332091 -0.92569,0.541867 -2.39325,0.541867 -2.07716,0 -3.36409,-1.264357 -1.26436,-1.286935 -1.26436,-3.612448 0,-1.6933341 0.63218,-2.9125345 0.63218,-1.2192014 1.78365,-1.8739568 1.17404,-0.6547557 2.73191,-0.6547557 1.53529,0 2.77707,0.7902224 1.24178,0.7676447 1.96427,2.3480898 0.72249,1.5578671 0.72249,3.9736918 z m -5.46383,-5.4412479 q -1.39982,0 -2.30294,0.9256894 -0.88053,0.9256894 -0.88053,2.8222235 0,1.557868 0.74507,2.46098 0.76764,0.880535 2.34809,0.880535 1.08373,0 1.87396,-0.428979 0.79022,-0.451556 1.2192,-1.12889 0.45155,-0.677334 0.45155,-1.399823 0,-0.9708457 -0.38382,-1.9191121 -0.38382,-0.9482677 -1.15147,-1.5804451 -0.76764,-0.6321787 -1.91911,-0.6321787 z"
       id="text10501"
       style="font-size:22.5778px;line-height:125%;letter-spacing:0px;word-spacing:0px;fill:#cccccc;stroke-width:0.264583px"
       aria-label="9" />
    <path
       d="m 242.22934,17.124833 h 2.24649 v 0.801512 h -2.24649 v 2.325514 h -0.8128 v -2.325514 h -2.24649 v -0.801512 h 2.24649 v -2.336802 h 0.8128 z m 8.70375,4.380094 h -5.32836 v -0.82409 l 2.11102,-2.133602 q 0.59831,-0.609601 1.016,-1.083735 0.42898,-0.474133 0.64347,-0.925689 0.21449,-0.451556 0.21449,-1.004713 0,-0.666045 -0.39511,-1.004712 -0.39511,-0.349956 -1.02729,-0.349956 -0.59831,0 -1.03858,0.203201 -0.44027,0.2032 -0.90311,0.564445 l -0.53058,-0.666046 q 0.47413,-0.395111 1.08373,-0.666045 0.62089,-0.282222 1.38854,-0.282222 1.12889,0 1.78364,0.575734 0.65476,0.575734 0.65476,1.569157 0,0.632178 -0.25965,1.185334 -0.25964,0.553157 -0.72248,1.095024 -0.46285,0.541867 -1.08374,1.140179 l -1.68205,1.659468 v 0.04516 h 4.0753 z m 6.49112,-4.041427 q 0,1.309513 -0.27093,2.235203 -0.27094,0.925689 -0.86925,1.422401 -0.58702,0.496712 -1.54658,0.496712 -1.36595,0 -2.02071,-1.095024 -0.64347,-1.106312 -0.64347,-3.059292 0,-1.309512 0.25965,-2.235202 0.27093,-0.92569 0.85795,-1.411112 0.58703,-0.496712 1.54658,-0.496712 1.35467,0 2.02072,1.095023 0.66604,1.083735 0.66604,3.048003 z m -4.35751,0 q 0,1.659469 0.37253,2.483558 0.38382,0.82409 1.29822,0.82409 0.90311,0 1.28694,-0.812801 0.39511,-0.824089 0.39511,-2.494847 0,-1.648179 -0.39511,-2.472269 -0.38383,-0.82409 -1.28694,-0.82409 -0.9144,0 -1.29822,0.82409 -0.37253,0.82409 -0.37253,2.472269 z"
       id="text13885"
       style="font-size:11.2889px;line-height:125%;letter-spacing:0px;word-spacing:0px;fill:#cccccc;stroke-width:0.264583px"
       aria-label="+20" />
    <path
       d="m 266.27718,17.124833 h 2.24649 v 0.801512 h -2.24649 v 2.325514 h -0.8128 v -2.325514 h -2.2465 v -0.801512 h 2.2465 v -2.336802 h 0.8128 z m 9.06499,2.551292 h -1.17405 v 1.828802 h -0.95955 v -1.828802 h -3.86081 v -0.846668 l 3.79307,-5.429961 h 1.02729 v 5.384806 h 1.17405 z m -2.1336,-0.891823 v -2.540003 q 0,-0.587023 0.0113,-0.993423 0.0226,-0.417689 0.0451,-0.790223 h -0.0451 q -0.0903,0.214489 -0.22578,0.462845 -0.13547,0.248356 -0.25965,0.417689 l -2.41582,3.443115 z m 8.26348,-1.320802 q 0,1.309513 -0.27094,2.235203 -0.27093,0.925689 -0.86924,1.422401 -0.58702,0.496712 -1.54658,0.496712 -1.36596,0 -2.02071,-1.095024 -0.64347,-1.106312 -0.64347,-3.059292 0,-1.309512 0.25964,-2.235202 0.27094,-0.92569 0.85796,-1.411112 0.58702,-0.496712 1.54658,-0.496712 1.35467,0 2.02071,1.095023 0.66605,1.083735 0.66605,3.048003 z m -4.35752,0 q 0,1.659469 0.37254,2.483558 0.38382,0.82409 1.29822,0.82409 0.90311,0 1.28693,-0.812801 0.39512,-0.824089 0.39512,-2.494847 0,-1.648179 -0.39512,-2.472269 -0.38382,-0.82409 -1.28693,-0.82409 -0.9144,0 -1.29822,0.82409 -0.37254,0.82409 -0.37254,2.472269 z"
       id="text16077"
       style="font-size:11.2889px;line-height:125%;letter-spacing:0px;word-spacing:0px;fill:#cccccc;stroke-width:0.264583px"
       aria-label="+40" />
    <path
       d="m 290.32506,17.124833 h 2.24649 v 0.801512 h -2.24649 v 2.325514 h -0.8128 v -2.325514 h -2.24649 v -0.801512 h 2.24649 v -2.336802 h 0.8128 z m 3.45441,0.936979 q 0,-0.869245 0.14675,-1.704624 0.15805,-0.846667 0.55316,-1.524001 0.4064,-0.688623 1.12889,-1.095024 0.72249,-0.4064 1.86267,-0.4064 0.23706,0 0.51929,0.02258 0.29351,0.02258 0.47413,0.07902 v 0.846667 q -0.2032,-0.06773 -0.46284,-0.1016 -0.25965,-0.03387 -0.508,-0.03387 -0.77894,0 -1.29823,0.259644 -0.51929,0.259645 -0.82409,0.711201 -0.29351,0.451556 -0.42898,1.038579 -0.13546,0.587023 -0.16933,1.253068 h 0.0677 q 0.25965,-0.395112 0.72249,-0.666045 0.46285,-0.282223 1.18534,-0.282223 1.04987,0 1.69333,0.643468 0.64347,0.632178 0.64347,1.806224 0,1.264356 -0.69991,1.986846 -0.68862,0.72249 -1.86267,0.72249 -0.76765,0 -1.38853,-0.383823 -0.62089,-0.383823 -0.99343,-1.174046 -0.36124,-0.790223 -0.36124,-1.998135 z m 2.73191,2.720625 q 0.7112,0 1.15147,-0.451556 0.44027,-0.462845 0.44027,-1.422401 0,-0.767646 -0.39512,-1.219202 -0.38382,-0.451556 -1.16275,-0.451556 -0.53058,0 -0.92569,0.225778 -0.39511,0.214489 -0.62089,0.564445 -0.21449,0.338667 -0.21449,0.688623 0,0.485423 0.19191,0.970846 0.19191,0.474134 0.57573,0.790223 0.38383,0.3048 0.95956,0.3048 z m 9.00855,-3.318937 q 0,1.309513 -0.27093,2.235203 -0.27094,0.925689 -0.86925,1.422401 -0.58702,0.496712 -1.54658,0.496712 -1.36596,0 -2.02071,-1.095024 -0.64347,-1.106312 -0.64347,-3.059292 0,-1.309512 0.25965,-2.235202 0.27093,-0.92569 0.85795,-1.411112 0.58702,-0.496712 1.54658,-0.496712 1.35467,0 2.02071,1.095023 0.66605,1.083735 0.66605,3.048003 z m -4.35752,0 q 0,1.659469 0.37254,2.483558 0.38382,0.82409 1.29822,0.82409 0.90311,0 1.28694,-0.812801 0.39511,-0.824089 0.39511,-2.494847 0,-1.648179 -0.39511,-2.472269 -0.38383,-0.82409 -1.28694,-0.82409 -0.9144,0 -1.29822,0.82409 -0.37254,0.82409 -0.37254,2.472269 z"
       id="text18109"
       style="font-size:11.2889px;line-height:125%;letter-spacing:0px;word-spacing:0px;fill:#cccccc;stroke-width:0.264583px"
       aria-label="+60" />
  </g>
</svg>
